<svg id="Layer_1" xmlns="http://www.w3.org/2000/svg" viewBox="-793 545.5 96 100"><style>.st0{fill:#ffffff}</style><path class="st0" d="M-711.1 556.6h-63.8c-3.5 0-6.3 2.9-6.3 6.6v75.5c0 3.6 2.8 6.6 6.3 6.6h63.8c3.5 0 6.3-2.9 6.3-6.6v-75.5c0-3.6-2.8-6.6-6.3-6.6zm.8 79s.2 1.5-.5 2.3c-.7.8-2.1.7-2.1.7h-60.7s-.9 0-1.5-.8c-.6-.6-.6-2-.6-2v-70.4s0-1 .6-1.6c.7-.6 1.6-.7 1.6-.7h60.7s1.2 0 1.7.5c.7.7.7 1.5.7 1.5l.1 70.5zM-737.3 547.8c0 1.4-1.3 2.5-2.8 2.5h-5.6c-1.5 0-2.8-1.1-2.8-2.5s1.3-2.5 2.8-2.5h5.6c1.6 0 2.8 1.2 2.8 2.5z"/><path class="st0" d="M-730.9 553.3c0-1.5-.1-3.9-1.3-3.9h-21.5c-1.1 0-1.4 2.4-1.4 3.9h24.2z"/><path class="st0" d="M-725.7 558.3c0-2.1-.2-5.6-1.9-5.6h-30.8c-1.6 0-2 3.5-1.9 5.5l34.6.1zM-755.8 577.6h35.4v3.2h-35.4zM-767 588.8v7.9h7.9v-7.9h-7.9zm1.2 6.7V590h5.5v5.5h-5.5zM-755.8 592.6h35.4v3.2h-35.4zM-755.8 606.9h35.4v3.2h-35.4zM-755.8 620.9h35.4v3.1h-35.4zM-767 573.9v7.9h7.9v-7.9h-7.9zm1.2 6.7V575h5.5v5.5h-5.5zM-767 603.2v7.9h7.9v-7.9h-7.9zm1.2 6.7v-5.5h5.5v5.5h-5.5zM-767 617.2v7.9h7.9v-7.9h-7.9zm1.2 6.7v-5.5h5.5v5.5h-5.5z"/></svg>