<svg xmlns="http://www.w3.org/2000/svg" viewBox="0 0 22.891 10.875"><defs><style>.a{fill:#f4b728;stroke:#3b3b3f;stroke-width:0.5px;}</style></defs><g transform="translate(0.283 0.286)"><g transform="translate(-0.001 0.004)"><path class="a" d="M2.269,5.239c1.185,1.183,2.35,2.345,3.513,3.508a.938.938,0,1,1-1.307,1.342c-.786-.777-1.564-1.561-2.346-2.342q-.89-.89-1.779-1.78A.943.943,0,0,1,.345,4.5Q2.4,2.446,4.449.395A.938.938,0,0,1,5.441.115a.891.891,0,0,1,.638.7.941.941,0,0,1-.307.917q-1.654,1.649-3.3,3.3C2.408,5.091,2.349,5.156,2.269,5.239Z" transform="translate(0.001 -0.067)"/><path class="a" d="M297.98,5.214c-1.2-1.2-2.36-2.357-3.522-3.512a1.015,1.015,0,0,1-.336-.674.944.944,0,0,1,.536-.9.932.932,0,0,1,1.071.195c.592.582,1.177,1.173,1.765,1.76l2.344,2.344a.959.959,0,0,1,.01,1.534q-2.027,2.028-4.054,4.057a.948.948,0,0,1-1.053.283.933.933,0,0,1-.307-1.576q1.655-1.664,3.319-3.319C297.815,5.341,297.888,5.29,297.98,5.214Z" transform="translate(-277.88 -0.034)"/><path class="a" d="M142.53,9.378a3.646,3.646,0,0,1,.149-.453q1.983-4.169,3.976-8.332a.939.939,0,1,1,1.7.8q-1.995,4.19-4,8.375a.93.93,0,0,1-1.1.533A1,1,0,0,1,142.53,9.378Z" transform="translate(-134.629 -0.004)"/></g></g></svg>