<svg xmlns="http://www.w3.org/2000/svg" viewBox="0 0 19.28 19.854"><defs><style>.a{fill:#000;}</style></defs><g transform="translate(0)"><path class="a" d="M6.612,39.045h0a.9.9,0,0,1-.9.9h-3.9v9.638H5.959c.5,0,.675.176.675.682,0,.768,0,1.536,0,2.3,0,.424.191.619.617.62q2.387,0,4.774,0c.436,0,.627-.2.628-.638,0-.784,0-1.568,0-2.352,0-.429.186-.616.616-.616q1.94,0,3.88,0h.3V39.956H13.569a.9.9,0,0,1-.9-.9v-.022a.9.9,0,0,1,.9-.9c1.227,0,3.415,0,4.657,0a.948.948,0,0,1,1.053,1.066q0,7.972,0,15.944A1.048,1.048,0,0,1,18.23,56.2H1.041A.931.931,0,0,1,0,55.152q0-8.007,0-16.015a.912.912,0,0,1,.951-1c1.293-.006,3.529,0,4.769.006A.9.9,0,0,1,6.612,39.045Z" transform="translate(0.002 -36.345)"/><path class="a" d="M112.724,5.946l.016-.016a1.125,1.125,0,0,1,1.6.005l1.14,1.154.06-.024V1.222A1.221,1.221,0,0,1,116.756,0h0a1.222,1.222,0,0,1,1.222,1.222V7.057l1.143-1.144a1.125,1.125,0,0,1,1.6,0l.04.041a1.125,1.125,0,0,1,0,1.586l-3.4,3.4a.86.86,0,0,1-1.216,0l-3.409-3.41A1.125,1.125,0,0,1,112.724,5.946Z" transform="translate(-107.108)"/></g></svg>