<svg xmlns="http://www.w3.org/2000/svg" viewBox="0 0 19.28 19.283"><defs><style>.a{fill:#000;}</style></defs><g transform="translate(0 0)"><path class="a" d="M7.454,19.286c-.055-.021-.111-.038-.163-.063a.657.657,0,0,1-.4-.613c-.005-1.236,0-2.472,0-3.708a.213.213,0,0,1,.049-.12q1.437-1.766,2.878-3.528l6.229-7.635a.277.277,0,0,0,.051-.085.5.5,0,0,0-.042.029L9.744,9.019q-2.5,2.166-5,4.333a.12.12,0,0,1-.148.015Q2.513,12.512.432,11.661a.683.683,0,0,1-.086-1.232L3.87,8.4,18.218.118a.666.666,0,0,1,.751,0,.663.663,0,0,1,.294.717q-.356,2.122-.708,4.245Q18.2,7.241,17.838,9.4q-.428,2.568-.858,5.136-.23,1.38-.458,2.763a.686.686,0,0,1-.969.55q-2.369-.966-4.734-1.937a.138.138,0,0,0-.193.048q-1.254,1.535-2.511,3.066a.778.778,0,0,1-.424.264C7.612,19.286,7.533,19.286,7.454,19.286Z" transform="translate(0.003 -0.005)"/></g></svg>