<svg xmlns="http://www.w3.org/2000/svg" viewBox="0 0 20.327 20.328"><defs><style>.a{fill:#fff;fill-rule:evenodd;}</style></defs><path class="a" d="M20.311,9.58a.868.868,0,0,0-.725-.865c-.067-.017-.134-.017-.2-.029-.58-.1-1.159-.2-1.763-.312-.218-.571-.434-1.136-.658-1.713.1-.134.186-.265.283-.39.253-.32.5-.65.772-.953A1.017,1.017,0,0,0,18,3.707c-.146-.143-.271-.306-.408-.457-.577-.638-.859-.679-1.588-.23-.484.3-.961.6-1.471.921A8.953,8.953,0,0,0,12,2.771c-.047-.245-.093-.463-.131-.685-.07-.425-.137-.851-.213-1.276a.874.874,0,0,0-.827-.778,6.587,6.587,0,0,0-1.291,0A.861.861,0,0,0,8.708.8c-.041.248-.067.5-.131.737a6.365,6.365,0,0,1-.242,1.194c-.749.315-1.436.6-2.153.9-.131-.087-.283-.184-.431-.285-.373-.262-.734-.539-1.113-.787A.881.881,0,0,0,3.4,2.658c-.268.245-.527.5-.772.772a.863.863,0,0,0-.09,1.229c.236.361.5.7.746,1.058.125.184.312.338.323.51-.312.752-.6,1.439-.891,2.141-.111.023-.218.047-.329.064-.536.093-1.078.172-1.611.277a.855.855,0,0,0-.76.836,12.027,12.027,0,0,0,0,1.3.828.828,0,0,0,.647.787c.151.047.312.052.466.087a11.385,11.385,0,0,1,1.626.329c.23.609.446,1.177.667,1.765-.189.236-.37.466-.554.7-.227.283-.466.559-.679.854A.888.888,0,0,0,2.2,16.493a10.568,10.568,0,0,0,.816.915.842.842,0,0,0,1.116.157c.181-.1.35-.21.524-.318l1.2-.743c.437.224.83.452,1.241.635s.842.32,1.261.478c.038.186.073.341.1.5.087.492.157.988.262,1.477a.809.809,0,0,0,.848.728c.431.017.865.015,1.3-.006a.781.781,0,0,0,.749-.591c.061-.192.079-.4.125-.6a13.164,13.164,0,0,1,.28-1.492l2.141-.88c.192.131.4.268.6.411.335.236.661.484,1,.708a.863.863,0,0,0,1.232-.082,10.682,10.682,0,0,0,.772-.769.9.9,0,0,0,.093-1.238c-.277-.417-.58-.813-.865-1.224-.1-.146-.184-.306-.245-.408.3-.728.583-1.4.9-2.15.274-.05.565-.1.854-.154.335-.058.676-.1,1.008-.166a.891.891,0,0,0,.813-.935C20.329,10.352,20.332,9.964,20.311,9.58ZM10.188,14a3.779,3.779,0,0,1-3.8-3.825,3.812,3.812,0,1,1,7.624.023A3.769,3.769,0,0,1,10.188,14Z" transform="translate(0 -0.001)"/></svg>