<svg xmlns="http://www.w3.org/2000/svg" viewBox="0 0 20.82 21.4"><defs><style>.a{fill:#000;}</style></defs><g transform="translate(0)"><path class="a" d="M10.862,0c.218.021.435.037.649.062A9.81,9.81,0,0,1,16.017,1.7a10.464,10.464,0,0,1,4.555,6.786,10.777,10.777,0,0,1-1.047,7.356,1.048,1.048,0,0,0-.053.119.921.921,0,0,1-1.043.567.961.961,0,0,1-.756-.965.369.369,0,0,1,.033-.148c.181-.431.366-.863.542-1.3a8.733,8.733,0,0,0,.67-3.923,8.725,8.725,0,0,0-2.723-5.944A8.051,8.051,0,0,0,11.573,2,8.176,8.176,0,0,0,4.824,4.062,8.452,8.452,0,0,0,1.99,9.3a8.683,8.683,0,0,0,2.185,7.369,8.123,8.123,0,0,0,5.028,2.7,8.2,8.2,0,0,0,6.19-1.577.44.44,0,0,0,.066-.058.909.909,0,0,1,1.027-.193.988.988,0,0,1,.571.908.807.807,0,0,1-.312.649,9.59,9.59,0,0,1-5.085,2.218,9.9,9.9,0,0,1-7.771-2.271,10.5,10.5,0,0,1-3.68-6.174A10.675,10.675,0,0,1,.064,9.46,10.6,10.6,0,0,1,2.68,3.528,10.173,10.173,0,0,1,8.213.242,9.672,9.672,0,0,1,9.823.021,1.185,1.185,0,0,0,9.942,0C10.25,0,10.554,0,10.862,0Z" transform="translate(0.01)"/><path class="a" d="M14.3,17.106h.9l4.28-.012c.76,0,1.52,0,2.28,0a.92.92,0,0,1,.115,1.836,1.751,1.751,0,0,1-.205.008q-4.707,0-9.41,0a1.214,1.214,0,0,1-.563-.1.893.893,0,0,1-.251-1.421q1.318-1.349,2.658-2.682a.889.889,0,0,1,1.265,1.249c-.324.341-.661.674-1,1.01a.436.436,0,0,1-.115.062A.448.448,0,0,1,14.3,17.106Z" transform="translate(-6.589 -8.53)"/><path class="a" d="M19.609,29.83h-.14q-3.654.006-7.3.008a.932.932,0,0,1-.928-.641A.915.915,0,0,1,12.1,28c1.109-.008,2.218,0,3.331,0h6.334a.908.908,0,0,1,.949.858.881.881,0,0,1-.283.694c-.32.32-.641.645-.961.969l-1.631,1.643A.892.892,0,0,1,18.7,32.3a.877.877,0,0,1-.164-1.339c.32-.341.657-.67.99-1a1.143,1.143,0,0,1,.111-.086A.094.094,0,0,1,19.609,29.83Z" transform="translate(-6.592 -16.498)"/></g></svg>