<svg xmlns="http://www.w3.org/2000/svg" viewBox="0 0 18.342 18.853"><defs><style>.a{fill:#ff6c6c;}</style></defs><g transform="translate(-16.208 -36.709)"><g transform="translate(22.05 41.044)"><path class="a" d="M2.822,2.39h.817l3.889-.011c.69,0,1.381,0,2.071,0a.836.836,0,0,1,.1,1.668,1.591,1.591,0,0,1-.187.007q-4.277,0-8.55,0a1.1,1.1,0,0,1-.511-.093A.811.811,0,0,1,.228,2.67Q1.426,1.444,2.642.233A.8.8,0,0,1,3.777.24a.8.8,0,0,1,.015,1.127c-.295.31-.6.612-.907.918a.4.4,0,0,1-.1.056A.407.407,0,0,1,2.822,2.39Z" transform="translate(6.505 0) rotate(90)"/><path class="a" d="M2.822,1.664h.817l3.889.011c.69,0,1.381,0,2.071,0A.836.836,0,0,0,9.7.011,1.591,1.591,0,0,0,9.517,0Q5.24,0,.967,0A1.1,1.1,0,0,0,.455.093.811.811,0,0,0,.228,1.385q1.2,1.226,2.415,2.437A.808.808,0,0,0,3.792,2.687c-.295-.31-.6-.612-.907-.918a.4.4,0,0,0-.1-.056A.407.407,0,0,0,2.822,1.664Z" transform="translate(4.054 0) rotate(90)"/></g><g transform="translate(16.208 36.709)"><g transform="translate(0 0)"><path class="a" d="M9.568,0c.192.018.384.033.572.054a8.642,8.642,0,0,1,3.97,1.44,9.218,9.218,0,0,1,4.013,5.978,9.494,9.494,0,0,1-.923,6.481.923.923,0,0,0-.047.1.812.812,0,0,1-.919.5.847.847,0,0,1-.666-.85.325.325,0,0,1,.029-.13c.159-.38.322-.76.478-1.143a7.694,7.694,0,0,0,.59-3.456,7.687,7.687,0,0,0-2.4-5.236,7.093,7.093,0,0,0-4.071-1.979A7.2,7.2,0,0,0,4.249,3.579a7.447,7.447,0,0,0-2.5,4.614,7.65,7.65,0,0,0,1.925,6.492,7.156,7.156,0,0,0,4.429,2.377,7.222,7.222,0,0,0,5.453-1.39.387.387,0,0,0,.058-.051.8.8,0,0,1,.9-.17.871.871,0,0,1,.5.8.711.711,0,0,1-.275.572,8.448,8.448,0,0,1-4.48,1.954,8.725,8.725,0,0,1-6.846-2A9.249,9.249,0,0,1,.182,11.337a9.4,9.4,0,0,1-.127-3A9.343,9.343,0,0,1,2.36,3.108,8.962,8.962,0,0,1,7.234.214a8.521,8.521,0,0,1,1.419-.2A1.044,1.044,0,0,0,8.758,0C9.029,0,9.3,0,9.568,0Z" transform="translate(0.01)"/></g></g></g></svg>